<?xml version="1.0" encoding="utf-8"?>
<!-- Generator: Adobe Illustrator 19.2.1, SVG Export Plug-In . SVG Version: 6.00 Build 0)  -->
<svg version="1.1" id="Capa_1" xmlns="http://www.w3.org/2000/svg" xmlns:xlink="http://www.w3.org/1999/xlink" x="0px" y="0px"
	 viewBox="0 0 50 50" style="enable-background:new 0 0 50 50;" xml:space="preserve">
<style type="text/css">
	.st0{fill:#FFFFFF;}
</style>
<circle cx="25" cy="25" r="25"/>
<g>
	<g>
		<path class="st0" d="M7.4,25.2c-0.3,0.5-0.7,0.8-1.2,1.1c-0.5,0.3-1.1,0.4-1.7,0.4c-1,0-1.8-0.3-2.4-0.8c-0.6-0.5-0.9-1.2-0.9-2
			c0-0.8,0.3-1.5,0.9-2C2.7,21.3,3.5,21,4.4,21c0.6,0,1.1,0.1,1.6,0.3c0.5,0.2,0.9,0.5,1.2,0.9l-0.7,0.5c-0.2-0.3-0.5-0.5-0.9-0.7
			c-0.4-0.2-0.8-0.2-1.2-0.2c-0.7,0-1.3,0.2-1.7,0.6C2.2,22.8,2,23.3,2,23.9c0,0.6,0.2,1.1,0.7,1.5c0.5,0.4,1,0.6,1.7,0.6
			c0.5,0,0.9-0.1,1.3-0.3s0.7-0.5,1-0.9L7.4,25.2z"/>
		<path class="st0" d="M8.7,26.5l2.8-5.3H12l2.8,5.3h-0.9l-0.7-1.4h-2.9l-0.7,1.4H8.7z M10.7,24.5h2.2l-1.1-2L10.7,24.5z"/>
		<path class="st0" d="M17.2,30.6v-8.6h-2.3v-0.7h5.5v0.7H18v8.6H17.2z"/>
		<path class="st0" d="M21.9,26.5v-5.3H27V22h-4.3v1.3h2.8v0.8h-2.8v1.7h4.5v0.8H21.9z"/>
		<path class="st0" d="M29.2,26.5v-5.3h0.5l3.5,3.8v-3.8H34v5.3h-0.5L30,22.8v3.7H29.2z"/>
		<path class="st0" d="M36.5,26.5v-5.3H37l3.5,3.8v-3.8h0.8v5.3h-0.5l-3.5-3.7v3.7H36.5z"/>
		<path class="st0" d="M42.8,26.5l2.8-5.3h0.5l2.8,5.3H48l-0.7-1.4h-2.9l-0.7,1.4H42.8z M44.8,24.5h2.2l-1.1-2L44.8,24.5z"/>
	</g>
</g>
</svg>
